<svg xmlns="http://www.w3.org/2000/svg" viewBox="0 0 797.24 531.5">
  <path fill="#b22234" d="M0 0h797.24v40.87H0z"/>
  <path fill="#fff" d="M0 40.87h797.24v40.87H0z"/>
  <path fill="#b22234" d="M0 81.75h797.24v40.87H0z"/>
  <path fill="#fff" d="M0 122.62h797.24v40.87H0z"/>
  <path fill="#b22234" d="M0 163.49h797.24v40.87H0z"/>
  <path fill="#fff" d="M0 204.36h797.24v40.87H0z"/>
  <path fill="#b22234" d="M0 245.23h797.24v40.87H0z"/>
  <path fill="#fff" d="M0 286.1h797.24v40.88H0z"/>
  <path fill="#b22234" d="M0 326.98h797.24v40.87H0z"/>
  <path fill="#fff" d="M0 367.85h797.24v40.87H0z"/>
  <path fill="#b22234" d="M0 408.72h797.24v40.87H0z"/>
  <path fill="#fff" d="M0 449.59h797.24v40.87H0z"/>
  <path fill="#b22234" d="M0 490.63h797.24v40.87H0z"/>
  <path fill="#3c3b6e" d="M0 0h354.33v286.1H0z"/>
  <path fill="#fff" d="M29.51 11.38l3.85 11.92 12.52-.02-10.15 7.34 3.9 11.9-10.12-7.38-10.12 7.38 3.9-11.9-10.15-7.34 12.53.02zM59.02 38.33l3.85 11.92 12.52-.02-10.15 7.34 3.9 11.9-10.12-7.38-10.11 7.38 3.9-11.9-10.16-7.34 12.53.02zM88.54 11.38l3.84 11.92 12.53-.02-10.15 7.34 3.9 11.9-10.12-7.38-10.12 7.38 3.9-11.9-10.15-7.34 12.52.02zM118.05 38.33l3.84 11.92 12.53-.02-10.15 7.34 3.9 11.9-10.12-7.38-10.12 7.38 3.9-11.9-10.15-7.34 12.52.02zM147.56 11.38l3.84 11.92 12.53-.02-10.15 7.34 3.9 11.9-10.12-7.38-10.12 7.38 3.9-11.9-10.15-7.34 12.53.02zM177.07 38.33l3.85 11.92 12.52-.02-10.15 7.34 3.9 11.9-10.12-7.38-10.12 7.38 3.9-11.9-10.15-7.34 12.53.02zM206.58 11.38l3.85 11.92 12.52-.02-10.15 7.34 3.9 11.9-10.12-7.38-10.11 7.38 3.9-11.9-10.16-7.34 12.53.02zM236.1 38.33l3.84 11.92 12.53-.02-10.15 7.34 3.9 11.9-10.12-7.38-10.12 7.38 3.9-11.9-10.15-7.34 12.52.02zM265.6 11.38l3.85 11.92 12.53-.02-10.15 7.34 3.9 11.9-10.12-7.38-10.12 7.38 3.9-11.9-10.15-7.34 12.52.02zM295.12 38.33l3.85 11.92 12.52-.02-10.15 7.34 3.9 11.9-10.12-7.38L285 69.47l3.9-11.9-10.15-7.34 12.53.02zM324.63 11.38l3.85 11.92 12.52-.02-10.15 7.34 3.9 11.9-10.12-7.38-10.11 7.38 3.9-11.9-10.16-7.34 12.53.02zM29.51 68.57l3.85 11.92 12.52-.03-10.15 7.34 3.9 11.9-10.12-7.38-10.12 7.39 3.9-11.9-10.15-7.35 12.53.03zM59.02 95.52l3.85 11.92 12.52-.02-10.15 7.34 3.9 11.9-10.12-7.38-10.11 7.38 3.9-11.9-10.16-7.34 12.53.02zM88.54 68.57l3.84 11.92 12.53-.03-10.15 7.34 3.9 11.9-10.12-7.38-10.12 7.39 3.9-11.9-10.15-7.35 12.52.03zM118.05 95.52l3.84 11.92 12.53-.02-10.15 7.34 3.9 11.9-10.12-7.38-10.12 7.38 3.9-11.9-10.15-7.34 12.52.02zM147.56 68.57l3.84 11.92 12.53-.03-10.15 7.34 3.9 11.9-10.12-7.38-10.12 7.39 3.9-11.9-10.15-7.35 12.53.03zM177.07 95.52l3.85 11.92 12.52-.02-10.15 7.34 3.9 11.9-10.12-7.38-10.12 7.38 3.9-11.9-10.15-7.34 12.53.02zM206.58 68.57l3.85 11.92 12.52-.03-10.15 7.34 3.9 11.9-10.12-7.38-10.11 7.39 3.9-11.9-10.16-7.35 12.53.03zM236.1 95.52l3.84 11.92 12.53-.02-10.15 7.34 3.9 11.9-10.12-7.38-10.12 7.38 3.9-11.9-10.15-7.34 12.52.02zM265.6 68.57l3.85 11.92 12.53-.03-10.15 7.34 3.9 11.9-10.12-7.38-10.12 7.39 3.9-11.9-10.15-7.35 12.52.03zM295.12 95.52l3.85 11.92 12.52-.02-10.15 7.34 3.9 11.9-10.12-7.38-10.12 7.38 3.9-11.9-10.15-7.34 12.53.02zM324.63 68.57l3.85 11.92 12.52-.03-10.15 7.34 3.9 11.9-10.12-7.38-10.11 7.39 3.9-11.9-10.16-7.35 12.53.03zM29.51 125.76l3.85 11.92 12.52-.03L35.73 145l3.9 11.9-10.12-7.38-10.12 7.39 3.9-11.9-10.15-7.35 12.53.03zM59.02 152.71l3.85 11.92 12.52-.03-10.15 7.34 3.9 11.9-10.12-7.38-10.11 7.39 3.9-11.9-10.16-7.35 12.53.03zM88.54 125.76l3.84 11.92 12.53-.03L94.76 145l3.9 11.9-10.12-7.38-10.12 7.39 3.9-11.9-10.15-7.35 12.52.03zM118.05 152.71l3.84 11.92 12.53-.03-10.15 7.34 3.9 11.9-10.12-7.38-10.12 7.39 3.9-11.9-10.15-7.35 12.52.03zM147.56 125.76l3.84 11.92 12.53-.03-10.15 7.34 3.9 11.9-10.12-7.38-10.12 7.39 3.9-11.9-10.15-7.35 12.53.03zM177.07 152.71l3.85 11.92 12.52-.03-10.15 7.34 3.9 11.9-10.12-7.38-10.12 7.39 3.9-11.9-10.15-7.35 12.53.03zM206.58 125.76l3.85 11.92 12.52-.03L212.8 145l3.9 11.9-10.12-7.38-10.11 7.39 3.9-11.9-10.16-7.35 12.53.03zM236.1 152.71l3.84 11.92 12.53-.03-10.15 7.34 3.9 11.9-10.12-7.38-10.12 7.39 3.9-11.9-10.15-7.35 12.52.03zM265.6 125.76l3.85 11.92 12.53-.03-10.15 7.34 3.9 11.9-10.12-7.38-10.12 7.39 3.9-11.9-10.15-7.35 12.52.03zM295.12 152.71l3.85 11.92 12.52-.03-10.15 7.34 3.9 11.9-10.12-7.38-10.12 7.39 3.9-11.9-10.15-7.35 12.53.03zM324.63 125.76l3.85 11.92 12.52-.03-10.15 7.34 3.9 11.9-10.12-7.38-10.11 7.39 3.9-11.9-10.16-7.35 12.53.03zM29.51 182.95l3.85 11.92 12.52-.03-10.15 7.34 3.9 11.9-10.12-7.38-10.12 7.39 3.9-11.9-10.15-7.35 12.53.03zM59.02 209.9l3.85 11.92 12.52-.03-10.15 7.34 3.9 11.9-10.12-7.38-10.11 7.39 3.9-11.9-10.16-7.35 12.53.03zM88.54 182.95l3.84 11.92 12.53-.03-10.15 7.34 3.9 11.9-10.12-7.38-10.12 7.39 3.9-11.9-10.15-7.35 12.52.03zM118.05 209.9l3.84 11.92 12.53-.03-10.15 7.34 3.9 11.9-10.12-7.38-10.12 7.39 3.9-11.9-10.15-7.35 12.52.03zM147.56 182.95l3.84 11.92 12.53-.03-10.15 7.34 3.9 11.9-10.12-7.38-10.12 7.39 3.9-11.9-10.15-7.35 12.53.03zM177.07 209.9l3.85 11.92 12.52-.03-10.15 7.34 3.9 11.9-10.12-7.38-10.12 7.39 3.9-11.9-10.15-7.35 12.53.03zM206.58 182.95l3.85 11.92 12.52-.03-10.15 7.34 3.9 11.9-10.12-7.38-10.11 7.39 3.9-11.9-10.16-7.35 12.53.03zM236.1 209.9l3.84 11.92 12.53-.03-10.15 7.34 3.9 11.9-10.12-7.38-10.12 7.39 3.9-11.9-10.15-7.35 12.52.03zM265.6 182.95l3.85 11.92 12.53-.03-10.15 7.34 3.9 11.9-10.12-7.38-10.12 7.39 3.9-11.9-10.15-7.35 12.52.03zM295.12 209.9l3.85 11.92 12.52-.03-10.15 7.34 3.9 11.9-10.12-7.38-10.12 7.39 3.9-11.9-10.15-7.35 12.53.03zM324.63 182.95l3.85 11.92 12.52-.03-10.15 7.34 3.9 11.9-10.12-7.38-10.11 7.39 3.9-11.9-10.16-7.35 12.53.03zM29.51 240.14l3.85 11.92 12.52-.03-10.15 7.34 3.9 11.9-10.12-7.38-10.12 7.39 3.9-11.9-10.15-7.35 12.53.03zM88.54 240.14l3.84 11.92 12.53-.03-10.15 7.34 3.9 11.9-10.12-7.38-10.12 7.39 3.9-11.9-10.15-7.35 12.52.03zM147.56 240.14l3.84 11.92 12.53-.03-10.15 7.34 3.9 11.9-10.12-7.38-10.12 7.39 3.9-11.9-10.15-7.35 12.53.03zM206.58 240.14l3.85 11.92 12.52-.03-10.15 7.34 3.9 11.9-10.12-7.38-10.11 7.39 3.9-11.9-10.16-7.35 12.53.03zM265.6 240.14l3.85 11.92 12.53-.03-10.15 7.34 3.9 11.9-10.12-7.38-10.12 7.39 3.9-11.9-10.15-7.35 12.52.03zM324.63 240.14l3.85 11.92 12.52-.03-10.15 7.34 3.9 11.9-10.12-7.38-10.11 7.39 3.9-11.9-10.16-7.35 12.53.03z"/>
</svg>
