<svg xmlns="http://www.w3.org/2000/svg" xmlns:i="&amp;#38;ns_ai;" viewBox="312 717.55 300 157.9">
  <switch>
    <g i:extraneous="self">
      <path fill="#FFF" d="M312 717.55h300v157.9H312z"/>
      <path fill="#B22234" d="M312 717.55h300v12.15H312zM312 741.84h300v12.15H312zM312 766.13h300v12.15H312zM312 790.43h300v12.15H312zM312 814.72h300v12.15H312zM312 839.01h300v12.15H312zM312 863.3h300v12.15H312z"/>
      <path fill="#3C3B6E" d="M312 717.55h120v85.02H312z"/>
      <path fill="#FFF" d="M317.64 724.45l2.86 2.08-1.1 3.36 2.86-2.07 2.86 2.07-1.09-3.36 2.86-2.08h-3.53l-1.1-3.36-1.09 3.36zM337.53 724.45l2.86 2.08-1.09 3.36 2.86-2.07 2.86 2.07-1.09-3.36 2.85-2.08h-3.53l-1.09-3.36-1.09 3.36zM357.43 724.45l2.86 2.08-1.1 3.36 2.86-2.07 2.86 2.07-1.09-3.36 2.86-2.08h-3.54l-1.09-3.36-1.09 3.36zM377.32 724.45l2.86 2.08-1.09 3.36 2.86-2.07 2.86 2.07-1.1-3.36 2.86-2.08h-3.53l-1.09-3.36-1.09 3.36zM397.22 724.45l2.86 2.08-1.1 3.36 2.86-2.07 2.86 2.07-1.09-3.36 2.86-2.08h-3.54l-1.09-3.36-1.09 3.36zM417.11 724.45l2.86 2.08-1.09 3.36 2.86-2.07 2.86 2.07-1.1-3.36 2.86-2.08h-3.53l-1.09-3.36-1.1 3.36zM327.58 732.98l2.86 2.08-1.09 3.36 2.86-2.08 2.86 2.08-1.09-3.36 2.86-2.08h-3.54l-1.09-3.36-1.09 3.36zM347.48 732.98l2.86 2.08-1.09 3.36 2.86-2.08 2.85 2.08-1.09-3.36 2.86-2.08h-3.53l-1.09-3.36-1.1 3.36zM367.38 732.98l2.85 2.08-1.09 3.36 2.86-2.08 2.86 2.08-1.09-3.36 2.86-2.08h-3.54l-1.09-3.36-1.09 3.36zM387.27 732.98l2.86 2.08-1.09 3.36 2.85-2.08 2.86 2.08-1.09-3.36 2.86-2.08h-3.53l-1.1-3.36-1.09 3.36zM407.16 732.98l2.86 2.08-1.09 3.36 2.86-2.08 2.86 2.08-1.09-3.36 2.85-2.08h-3.53l-1.09-3.36-1.09 3.36zM317.64 741.51l2.86 2.07-1.1 3.37 2.86-2.08 2.86 2.08-1.09-3.37 2.86-2.07h-3.53l-1.1-3.36-1.09 3.36zM337.53 741.51l2.86 2.07-1.09 3.37 2.86-2.08 2.86 2.08-1.09-3.37 2.85-2.07h-3.53l-1.09-3.36-1.09 3.36zM357.43 741.51l2.86 2.07-1.1 3.37 2.86-2.08 2.86 2.08-1.09-3.37 2.86-2.07h-3.54l-1.09-3.36-1.09 3.36zM377.32 741.51l2.86 2.07-1.09 3.37 2.86-2.08 2.86 2.08-1.1-3.37 2.86-2.07h-3.53l-1.09-3.36-1.09 3.36zM397.22 741.51l2.86 2.07-1.1 3.37 2.86-2.08 2.86 2.08-1.09-3.37 2.86-2.07h-3.54l-1.09-3.36-1.09 3.36zM417.11 741.51l2.86 2.07-1.09 3.37 2.86-2.08 2.86 2.08-1.1-3.37 2.86-2.07h-3.53l-1.09-3.36-1.1 3.36zM327.83 750.06l2.86 2.08-1.09 3.36 2.86-2.08 2.85 2.08-1.09-3.36 2.86-2.08h-3.53l-1.09-3.36-1.1 3.36zM347.73 750.06l2.85 2.08-1.09 3.36 2.86-2.08 2.86 2.08-1.09-3.36 2.86-2.08h-3.54l-1.09-3.36-1.09 3.36zM367.62 750.06l2.86 2.08-1.09 3.36 2.86-2.08 2.85 2.08-1.09-3.36 2.86-2.08h-3.53l-1.09-3.36-1.1 3.36zM387.51 750.06l2.86 2.08-1.09 3.36 2.86-2.08 2.86 2.08-1.09-3.36 2.85-2.08h-3.53l-1.09-3.36-1.09 3.36zM407.41 750.06l2.86 2.08-1.09 3.36 2.86-2.08 2.85 2.08-1.09-3.36 2.86-2.08h-3.53l-1.09-3.36-1.1 3.36zM317.94 758.52l2.86 2.07-1.09 3.36 2.85-2.07 2.86 2.07-1.09-3.36 2.86-2.07h-3.53l-1.1-3.36-1.09 3.36zM337.83 758.52l2.86 2.07-1.09 3.36 2.86-2.07 2.86 2.07-1.09-3.36 2.85-2.07h-3.53l-1.09-3.36-1.09 3.36zM357.73 758.52l2.86 2.07-1.09 3.36 2.86-2.07 2.85 2.07-1.09-3.36 2.86-2.07h-3.53l-1.09-3.36-1.1 3.36zM377.62 758.52l2.86 2.07-1.09 3.36 2.86-2.07 2.86 2.07-1.09-3.36 2.86-2.07h-3.54l-1.09-3.36-1.09 3.36zM397.52 758.52l2.86 2.07-1.09 3.36 2.85-2.07 2.86 2.07-1.09-3.36 2.86-2.07h-3.53l-1.1-3.36-1.09 3.36zM417.41 758.52l2.86 2.07-1.09 3.36 2.86-2.07 2.86 2.07-1.09-3.36 2.85-2.07h-3.53l-1.09-3.36-1.09 3.36zM318.13 775.3l2.86 2.08-1.1 3.36 2.86-2.08 2.86 2.08-1.09-3.36 2.86-2.08h-3.54l-1.09-3.36-1.09 3.36zM338.02 775.3l2.86 2.08-1.09 3.36 2.86-2.08 2.85 2.08-1.09-3.36 2.86-2.08h-3.53l-1.09-3.36-1.1 3.36zM357.92 775.3l2.85 2.08-1.09 3.36 2.86-2.08 2.86 2.08-1.09-3.36 2.86-2.08h-3.54l-1.09-3.36-1.09 3.36zM377.81 775.3l2.86 2.08-1.09 3.36 2.86-2.08 2.85 2.08-1.09-3.36 2.86-2.08h-3.53l-1.09-3.36-1.1 3.36zM397.7 775.3l2.86 2.08-1.09 3.36 2.86-2.08 2.86 2.08-1.09-3.36 2.86-2.08h-3.54l-1.09-3.36-1.09 3.36zM417.6 775.3l2.86 2.08-1.09 3.36 2.86-2.08 2.85 2.08-1.09-3.36 2.86-2.08h-3.53l-1.09-3.36-1.1 3.36zM317.88 792.28l2.86 2.08-1.09 3.36 2.86-2.08 2.86 2.08-1.1-3.36 2.86-2.08h-3.53l-1.09-3.36-1.09 3.36zM337.78 792.28l2.86 2.08-1.09 3.36 2.85-2.08 2.86 2.08-1.09-3.36 2.86-2.08h-3.53l-1.1-3.36-1.09 3.36zM357.67 792.28l2.86 2.08-1.09 3.36 2.86-2.08 2.86 2.08-1.1-3.36 2.86-2.08h-3.53l-1.09-3.36-1.09 3.36zM377.57 792.28l2.86 2.08-1.1 3.36 2.86-2.08 2.86 2.08-1.09-3.36 2.86-2.08h-3.53l-1.1-3.36-1.09 3.36zM397.46 792.28l2.86 2.08-1.09 3.36 2.86-2.08 2.86 2.08-1.1-3.36 2.86-2.08h-3.53l-1.09-3.36-1.09 3.36zM417.36 792.28l2.85 2.08-1.09 3.36 2.86-2.08 2.86 2.08-1.09-3.36 2.86-2.08h-3.54l-1.09-3.36-1.09 3.36zM327.89 766.82l2.86 2.08-1.09 3.36 2.85-2.08 2.86 2.08-1.09-3.36 2.86-2.08h-3.53l-1.1-3.36-1.09 3.36zM347.79 766.82l2.85 2.08-1.09 3.36 2.86-2.08 2.86 2.08-1.09-3.36 2.86-2.08h-3.54l-1.09-3.36-1.09 3.36zM367.68 766.82l2.86 2.08-1.09 3.36 2.86-2.08 2.85 2.08-1.09-3.36 2.86-2.08h-3.53l-1.09-3.36-1.1 3.36zM387.57 766.82l2.86 2.08-1.09 3.36 2.86-2.08 2.86 2.08-1.09-3.36 2.85-2.08h-3.53l-1.09-3.36-1.09 3.36zM407.47 766.82l2.86 2.08-1.09 3.36 2.85-2.08 2.86 2.08-1.09-3.36 2.86-2.08h-3.53l-1.1-3.36-1.09 3.36zM327.83 783.78l2.86 2.07-1.09 3.37 2.86-2.08 2.85 2.08-1.09-3.37 2.86-2.07h-3.53l-1.09-3.36-1.1 3.36zM347.73 783.78l2.85 2.07-1.09 3.37 2.86-2.08 2.86 2.08-1.09-3.37 2.86-2.07h-3.54l-1.09-3.36-1.09 3.36zM367.62 783.78l2.86 2.07-1.09 3.37 2.86-2.08 2.85 2.08-1.09-3.37 2.86-2.07h-3.53l-1.09-3.36-1.1 3.36zM387.51 783.78l2.86 2.07-1.09 3.37 2.86-2.08 2.86 2.08-1.09-3.37 2.85-2.07h-3.53l-1.09-3.36-1.09 3.36zM407.41 783.78l2.86 2.07-1.09 3.37 2.86-2.08 2.85 2.08-1.09-3.37 2.86-2.07h-3.53l-1.09-3.36-1.1 3.36z"/>
    </g>
  </switch>
</svg>
